<?xml version="1.0" standalone="no"?>
<!DOCTYPE svg PUBLIC "-//W3C//DTD SVG 20010904//EN"
 "http://www.w3.org/TR/2001/REC-SVG-20010904/DTD/svg10.dtd">
<svg version="1.0" xmlns="http://www.w3.org/2000/svg"
 width="630.000000pt" height="630.000000pt" viewBox="0 0 630.000000 630.000000"
 preserveAspectRatio="xMidYMid meet">
<metadata>
Created by potrace 1.11, written by Peter Selinger 2001-2013
</metadata>
<g transform="translate(0.000000,630.000000) scale(0.100000,-0.100000)"
fill="#000000" stroke="none">
<path d="M2115 5918 c-170 -23 -352 -78 -515 -156 -100 -48 -314 -184 -390
-248 -69 -59 -261 -253 -305 -309 -22 -27 -42 -52 -45 -55 -8 -7 -121 -167
-152 -215 -200 -311 -362 -738 -433 -1140 -3 -16 -7 -41 -9 -55 -8 -42 -25
-181 -33 -265 -16 -159 -8 -642 11 -765 2 -14 7 -45 10 -70 76 -546 274 -1045
577 -1450 82 -110 277 -319 364 -390 91 -75 257 -190 274 -190 5 0 11 -4 13
-8 5 -13 207 -108 299 -140 196 -69 359 -94 582 -89 119 3 190 10 267 26 288
62 543 184 776 371 l87 69 106 -54 c58 -30 122 -65 141 -77 285 -181 615 -237
1075 -184 29 4 115 18 180 31 408 79 826 297 1020 532 30 37 53 68 51 70 -2 2
-30 -11 -62 -30 -231 -129 -601 -262 -816 -292 -97 -13 -115 -16 -138 -21 -14
-3 -106 -7 -205 -9 -353 -6 -599 53 -865 210 -58 35 -129 74 -158 89 -35 18
-50 31 -45 39 4 7 35 50 69 97 159 219 298 493 395 780 27 78 81 269 93 330 3
14 10 43 15 65 5 22 12 57 15 78 9 60 17 108 21 126 2 9 6 41 10 71 3 30 8 69
10 85 22 167 22 651 0 763 -2 10 -6 43 -10 73 -55 457 -220 937 -450 1308 -37
59 -180 259 -194 271 -3 3 -28 32 -56 65 -258 308 -638 547 -1005 633 -173 41
-407 53 -575 30z m374 -388 c121 -32 199 -69 294 -138 218 -159 413 -425 546
-747 23 -55 46 -109 51 -120 62 -138 169 -581 195 -805 3 -30 8 -66 10 -80 26
-166 27 -823 1 -966 -2 -10 -7 -46 -10 -79 -11 -94 -55 -330 -82 -440 -74
-298 -187 -584 -308 -783 -34 -57 -39 -61 -66 -55 -43 8 -284 9 -370 1 -295
-28 -582 -132 -843 -305 -112 -74 -94 -77 -203 32 -124 123 -251 310 -344 509
-47 98 -108 244 -116 276 -2 8 -15 49 -29 90 -14 41 -43 147 -65 235 -40 164
-45 185 -56 264 -3 25 -10 62 -14 81 -5 19 -12 67 -15 105 -4 39 -9 84 -10
100 -15 143 -19 232 -19 440 0 211 9 438 18 454 2 4 7 40 10 81 4 41 14 112
22 158 8 45 17 99 20 120 3 20 7 45 10 54 3 9 6 25 8 35 38 191 137 490 225
678 219 463 496 734 836 814 64 15 230 10 304 -9z m325 -4514 c44 -3 81 -8 83
-10 5 -5 -118 -103 -172 -137 -134 -83 -291 -125 -439 -116 -50 3 -104 8 -119
12 -73 15 -231 87 -265 120 -11 10 1 16 66 34 118 32 264 64 345 75 27 4 59 9
70 12 12 2 67 7 122 10 55 3 101 7 102 8 3 3 110 -2 207 -8z"/>
<path d="M4575 5140 c-22 -11 -125 -60 -230 -110 -235 -111 -241 -115 -237
-137 9 -46 67 -177 102 -231 44 -69 97 -109 153 -116 83 -10 171 50 183 125 6
37 6 37 36 24 37 -15 84 -6 128 25 75 53 73 156 -5 310 -32 64 -75 130 -84
130 -3 0 -24 -9 -46 -20z m50 -192 c14 -29 25 -64 25 -77 0 -34 -28 -61 -61
-61 -31 0 -67 40 -94 103 l-15 36 52 25 c29 14 57 25 61 25 4 1 19 -23 32 -51z
m-211 -108 c35 -77 36 -117 6 -142 -32 -26 -72 -23 -102 10 -26 27 -68 103
-68 122 0 8 111 68 131 69 4 1 18 -26 33 -59z"/>
<path d="M4704 4517 c-197 -68 -249 -96 -285 -153 -50 -82 -21 -232 61 -315
83 -83 133 -81 416 15 l172 58 -20 62 c-12 33 -22 62 -22 63 -1 1 -83 -25
-182 -58 -205 -69 -250 -75 -288 -40 -55 52 -52 134 7 169 18 11 111 46 207
78 96 31 177 59 179 61 2 1 -4 30 -14 63 -13 42 -23 60 -34 59 -9 0 -97 -28
-197 -62z"/>
<path d="M5079 3886 c-2 -2 -26 -7 -54 -10 -45 -6 -295 -42 -355 -51 -14 -2
-45 -7 -70 -10 -83 -11 -83 -11 -74 -68 4 -29 7 -58 7 -64 0 -16 -8 -16 107 1
52 8 115 17 140 20 25 3 54 8 65 10 11 2 43 7 70 10 28 4 62 9 76 11 14 3 43
7 63 10 61 7 77 15 72 33 -2 9 -7 38 -11 65 -5 41 -20 58 -36 43z"/>
<path d="M5037 3553 c-1 -1 -85 -5 -187 -8 -160 -6 -265 -11 -293 -14 -4 -1
-4 -58 -1 -128 3 -71 7 -159 8 -198 l3 -70 54 2 c30 1 56 2 59 2 3 1 3 36 0
78 -3 43 -5 102 -5 132 l0 54 75 3 c41 2 122 6 180 8 58 3 131 5 163 5 l57 1
0 69 0 68 -56 -1 c-31 -1 -56 -2 -57 -3z"/>
<path d="M4575 3038 c-15 -38 -32 -176 -30 -245 5 -190 122 -298 320 -296 196
2 288 129 294 407 2 77 0 86 -16 87 -10 1 -29 2 -43 4 -73 7 -157 16 -212 21
-35 3 -74 7 -88 9 -14 2 -65 7 -115 10 -49 4 -93 9 -98 12 -4 2 -9 -2 -12 -9z
m260 -153 c118 -10 191 -18 199 -23 16 -9 -3 -120 -26 -156 -30 -46 -67 -66
-128 -71 -94 -7 -178 35 -207 103 -13 31 -17 135 -5 155 2 5 32 5 66 2 33 -4
79 -8 101 -10z"/>
<path d="M4481 2373 c-29 -111 -62 -234 -75 -283 -23 -82 -22 -85 32 -98 50
-11 60 -8 66 24 2 10 11 45 20 77 9 31 23 81 31 111 l15 53 57 -16 c32 -9 63
-19 69 -23 8 -5 2 -38 -18 -109 -16 -55 -27 -107 -25 -114 7 -17 89 -37 98
-23 4 5 19 57 34 114 22 84 31 104 44 100 9 -3 35 -10 57 -15 l42 -11 -30
-108 c-42 -155 -43 -152 17 -167 28 -7 51 -13 52 -12 1 2 103 385 103 390 0 2
-6 4 -12 4 -7 1 -74 17 -148 38 -74 20 -146 38 -160 41 -14 2 -36 9 -50 14
-39 14 -179 50 -195 50 -8 0 -18 -16 -24 -37z"/>
<path d="M4325 1858 c-14 -29 -25 -57 -25 -63 0 -5 41 -28 91 -50 50 -21 92
-42 95 -46 9 -15 -20 -60 -43 -64 -13 -3 -34 -7 -49 -10 -14 -3 -55 -8 -92
-11 -37 -3 -71 -7 -77 -7 -9 -2 -73 -113 -75 -129 0 -16 172 -3 256 18 20 5
24 2 24 -19 0 -105 130 -192 236 -157 72 24 154 138 199 277 9 29 15 57 13 64
-2 6 -91 51 -198 100 -107 49 -223 103 -258 119 -35 17 -65 30 -68 30 -3 0
-16 -24 -29 -52z m339 -238 c74 -34 78 -44 45 -100 -30 -48 -57 -70 -89 -70
-47 0 -78 43 -70 100 2 19 37 100 43 100 2 0 34 -14 71 -30z"/>
</g>
</svg>
